<svg width="24" height="24" viewBox="0 0 24 24" fill="none" xmlns="http://www.w3.org/2000/svg">
<g id="Frame">
<path id="Vector" d="M4.26 10.1469C3.98495 12.2525 3.82106 14.3711 3.769 16.4939C6.6478 17.6964 9.40418 19.1732 12 20.9039C14.5961 19.1732 17.3529 17.6964 20.232 16.4939C20.1799 14.3711 20.016 12.2525 19.741 10.1469M19.741 10.1469C20.616 9.85292 21.503 9.58092 22.399 9.33292C19.1356 7.04517 15.652 5.08881 12 3.49292C8.348 5.08914 4.8644 7.04584 1.601 9.33392C2.49427 9.58055 3.38061 9.85165 4.259 10.1469C6.92762 11.0441 9.5169 12.162 12 13.4889C14.4827 12.162 17.0727 11.0441 19.741 10.1469ZM6.75 14.9999C6.94891 14.9999 7.13968 14.9209 7.28033 14.7802C7.42098 14.6396 7.5 14.4488 7.5 14.2499C7.5 14.051 7.42098 13.8602 7.28033 13.7196C7.13968 13.5789 6.94891 13.4999 6.75 13.4999C6.55109 13.4999 6.36032 13.5789 6.21967 13.7196C6.07902 13.8602 6 14.051 6 14.2499C6 14.4488 6.07902 14.6396 6.21967 14.7802C6.36032 14.9209 6.55109 14.9999 6.75 14.9999ZM6.75 14.9999V11.3249C8.44674 10.2703 10.1993 9.30818 12 8.44292M4.993 19.9929C5.55097 19.4363 5.99344 18.7749 6.29497 18.0468C6.59649 17.3186 6.75113 16.538 6.75 15.7499V14.2499" stroke="black" stroke-width="1.5" stroke-linecap="round" stroke-linejoin="round"/>
</g>
</svg>
