<svg xmlns="http://www.w3.org/2000/svg" version="1.1" xmlns:xlink="http://www.w3.org/1999/xlink" xmlns:svgjs="http://svgjs.dev/svgjs" width="1500" height="935" viewBox="0 0 1500 935"><g transform="matrix(1,0,0,1,-0.9090909090909918,0.3785425101214628)"><svg viewBox="0 0 396 247" data-background-color="#ffffff" preserveAspectRatio="xMidYMid meet" height="935" width="1500" xmlns="http://www.w3.org/2000/svg" xmlns:xlink="http://www.w3.org/1999/xlink"><g id="tight-bounds" transform="matrix(1,0,0,1,0.2400000000000091,-0.09999999999999432)"><svg viewBox="0 0 395.52 247.2" height="247.2" width="395.52"><g><svg></svg></g><g><svg viewBox="0 0 395.52 247.2" height="247.2" width="395.52"><g transform="matrix(1,0,0,1,75.54432,66.32191277609121)"><svg viewBox="0 0 244.43135999999998 114.55617444781758" height="114.55617444781758" width="244.43135999999998"><g><svg viewBox="0 0 244.43135999999998 114.55617444781758" height="114.55617444781758" width="244.43135999999998"><g><svg viewBox="0 0 244.43135999999998 114.55617444781758" height="114.55617444781758" width="244.43135999999998"><g><svg viewBox="0 0 244.43135999999998 114.55617444781758" height="114.55617444781758" width="244.43135999999998"><g id="textblocktransform"><svg viewBox="0 0 244.43135999999998 114.55617444781758" height="114.55617444781758" width="244.43135999999998" id="textblock"><g><svg viewBox="0 0 244.43135999999998 80.15074827906977" height="80.15074827906977" width="244.43135999999998"><g transform="matrix(1,0,0,1,0,0)"><svg width="244.43135999999998" viewBox="2.9 -35.8 150.48999999999998 49.349999999999994" height="80.15074827906977" data-palette-color="#3d3839"><path d="M24.2-24.4L22.4-24.4Q22.25-26.8 21.25-28.95 20.25-31.1 18.35-32.45 16.45-33.8 13.5-33.8L13.5-33.8Q10.4-33.8 8.75-32.05 7.1-30.3 7.1-27.95L7.1-27.95Q7.1-25.85 8.3-24.43 9.5-23 11.43-21.93 13.35-20.85 15.5-19.85L15.5-19.85Q17.4-19 19.3-18.03 21.2-17.05 22.75-15.8 24.3-14.55 25.23-12.83 26.15-11.1 26.15-8.7L26.15-8.7Q26.15-5.95 24.78-3.8 23.4-1.65 20.8-0.43 18.2 0.8 14.45 0.8L14.45 0.8Q12.2 0.8 9.8 0.15 7.4-0.5 5.55-1.75L5.55-1.75 5.8 0.4 3.2 0.4 2.9-10.25 4.85-10.25Q5.1-5.85 7.9-3.58 10.7-1.3 14.65-1.3L14.65-1.3Q16.6-1.3 18.25-2.02 19.9-2.75 20.88-4.15 21.85-5.55 21.85-7.55L21.85-7.55Q21.85-9.8 20.65-11.3 19.45-12.8 17.55-13.9 15.65-15 13.5-16L13.5-16Q11.6-16.85 9.75-17.8 7.9-18.75 6.38-19.98 4.85-21.2 3.93-22.9 3-24.6 3-27L3-27Q3-28.3 3.45-29.8 3.9-31.3 5.03-32.68 6.15-34.05 8.13-34.93 10.1-35.8 13.15-35.8L13.15-35.8Q15.05-35.8 17.43-35.27 19.8-34.75 21.85-33.25L21.85-33.25 21.65-35.4 24.2-35.4 24.2-24.4ZM42.65 0.8L42.65 0.8Q39.2 0.8 36.42-0.83 33.65-2.45 32.05-5.43 30.45-8.4 30.45-12.45L30.45-12.45Q30.45-15.95 32.02-19 33.6-22.05 36.45-23.93 39.3-25.8 43.05-25.8L43.05-25.8Q45.15-25.8 46.97-25.13 48.8-24.45 50.2-23.08 51.6-21.7 52.4-19.63 53.2-17.55 53.2-14.75L53.2-14.75 35.6-14.45Q35.6-10.65 36.42-7.78 37.25-4.9 39.1-3.33 40.95-1.75 43.85-1.75L43.85-1.75Q45.4-1.75 47.02-2.3 48.65-2.85 50.05-3.8 51.45-4.75 52.3-5.9L52.3-5.9 53.5-4.9Q52.15-2.8 50.25-1.55 48.35-0.3 46.35 0.25 44.35 0.8 42.65 0.8ZM35.75-16.55L35.75-16.55 48.5-16.55Q48.5-18.35 47.97-20.03 47.45-21.7 46.25-22.78 45.05-23.85 43.1-23.85L43.1-23.85Q40.2-23.85 38.27-22.13 36.35-20.4 35.75-16.55ZM67.85 0L57.65 0 57.65-1.5Q59.2-1.5 59.8-2.27 60.4-3.05 60.5-4.42 60.6-5.8 60.6-7.6L60.6-7.6 60.65-19Q60.65-19.8 60.67-20.6 60.7-21.4 60.85-22.25L60.85-22.25Q59.95-22.2 59.07-22.15 58.2-22.1 57.3-22.05L57.3-22.05 57.3-24.15Q59.5-24.15 60.62-24.35 61.75-24.55 62.3-24.85 62.85-25.15 63.2-25.5L63.2-25.5 64.65-25.5Q64.7-25.15 64.72-24.7 64.75-24.25 64.8-23.7 64.85-23.15 64.85-22.45L64.85-22.45Q65.95-23.4 67.27-24.15 68.6-24.9 70.07-25.35 71.55-25.8 73-25.8L73-25.8Q77.35-25.8 79.35-23.08 81.35-20.35 81.35-14.6L81.35-14.6 81.35-5.3Q81.35-4.3 81.32-3.53 81.3-2.75 81.15-1.9L81.15-1.9Q81.95-1.95 82.72-1.98 83.5-2 84.3-2.05L84.3-2.05 84.3 0 74.1 0 74.1-1.5Q75.65-1.5 76.25-2.27 76.85-3.05 76.95-4.42 77.05-5.8 77.05-7.6L77.05-7.6 77.05-14.6Q77-18.9 75.62-21.1 74.25-23.3 71.3-23.25L71.3-23.25Q69.5-23.2 67.77-22.3 66.05-21.4 64.9-20L64.9-20Q64.95-19.6 64.95-19.1 64.95-18.6 64.95-18.05L64.95-18.05 64.9-5.3Q64.9-4.3 64.87-3.53 64.85-2.75 64.7-1.9L64.7-1.9Q65.5-1.95 66.27-1.98 67.05-2 67.85-2.05L67.85-2.05 67.85 0ZM96.94 0.8L96.94 0.8Q95.79 0.8 94.59 0.48 93.39 0.15 92.37-0.8 91.34-1.75 90.74-3.58 90.14-5.4 90.14-8.4L90.14-8.4 90.24-22.9 86.39-22.85 86.39-25Q87.69-25.05 89.04-25.98 90.39-26.9 91.47-28.5 92.54-30.1 92.94-32L92.94-32 94.64-32 94.64-25 103.04-25 103.04-23.05 94.64-22.95 94.54-9.05Q94.54-6.8 94.92-5.23 95.29-3.65 96.14-2.85 96.99-2.05 98.34-2.05L98.34-2.05Q99.74-2.05 100.97-2.85 102.19-3.65 103.14-5.05L103.14-5.05 104.49-3.95Q103.39-2.3 102.32-1.35 101.24-0.4 100.24 0.08 99.24 0.55 98.39 0.68 97.54 0.8 96.94 0.8ZM106.89 0L106.89-1.5Q108.44-1.5 109.04-2.27 109.64-3.05 109.74-4.42 109.84-5.8 109.84-7.6L109.84-7.6 109.84-19Q109.84-19.8 109.87-20.6 109.89-21.4 110.04-22.25L110.04-22.25Q109.14-22.2 108.27-22.18 107.39-22.15 106.49-22.1L106.49-22.1 106.49-24.15 108.04-24.15Q110.19-24.15 111.02-24.58 111.84-25 112.39-25.5L112.39-25.5 113.84-25.5Q113.94-24.7 113.99-23.53 114.04-22.35 114.09-20.55L114.09-20.55Q114.84-21.8 116.14-23 117.44-24.2 119.07-25 120.69-25.8 122.49-25.8L122.49-25.8Q123.89-25.8 124.94-25.05 125.99-24.3 125.99-22.65L125.99-22.65Q125.99-22.25 125.74-21.68 125.49-21.1 124.94-20.68 124.39-20.25 123.49-20.25L123.49-20.25Q122.39-20.3 121.74-21.13 121.09-21.95 121.24-23.05L121.24-23.05Q119.99-23.1 118.67-22.4 117.34-21.7 116.19-20.48 115.04-19.25 114.14-17.6L114.14-17.6 114.19-5.3Q114.19-4.3 114.17-3.53 114.14-2.75 113.99-1.9L113.99-1.9Q114.79-1.95 115.57-1.98 116.34-2 117.14-2.05L117.14-2.05 117.14 0 106.89 0ZM133.24 13.55L133.24 13.55Q131.69 13.55 130.59 12.8 129.49 12.05 129.49 10.5L129.49 10.5Q129.49 9.6 130.09 8.85 130.69 8.1 131.64 8.1L131.64 8.1Q132.84 8.05 133.26 8.85 133.69 9.65 133.69 10.25L133.69 10.25Q133.69 10.4 133.69 10.58 133.69 10.75 133.64 10.95L133.64 10.95Q133.79 11.05 134.19 11.05L134.19 11.05Q134.79 11.05 135.49 10.55 136.19 10.05 136.74 9.1L136.74 9.1Q137.39 8 138.26 5.8 139.14 3.6 140.24 0.55L140.24 0.55 132.44-16.15Q131.14-18.95 130.56-20.6 129.99-22.25 129.79-23.05L129.79-23.05 127.39-22.95 127.39-25 137.74-25 137.74-23.5 137.54-23.5Q135.44-23.35 135.24-21.93 135.04-20.5 136.39-17.6L136.39-17.6 142.24-5.05Q143.39-8.25 144.44-11.38 145.49-14.5 146.54-17.6L146.54-17.6Q146.94-18.7 147.36-19.88 147.79-21.05 148.21-21.98 148.64-22.9 148.99-23.15L148.99-23.15 145.54-22.95 145.54-25 153.39-25 153.39-23.5Q151.54-22.8 150.61-21.18 149.69-19.55 148.74-17L148.74-17 142.49 0.45Q140.99 4.65 139.74 7.58 138.49 10.5 136.99 12.03 135.49 13.55 133.24 13.55Z" opacity="1" transform="matrix(1,0,0,1,0,0)" fill="#3d3839" class="wordmark-text-0" data-fill-palette-color="primary" id="text-0"></path></svg></g></svg></g><g transform="matrix(1,0,0,1,0,99.07241632979945)"><svg viewBox="0 0 244.43135999999998 15.483758118018136" height="15.483758118018136" width="244.43135999999998"><g transform="matrix(1,0,0,1,0,0)"><svg width="244.43135999999998" viewBox="1.65 -38.8 760.82 48.199999999999996" height="15.483758118018136" data-palette-color="#ffdc00"><path d="M12.35-3.45L12.35-3.45Q19.95-3.45 19.95-8.65L19.95-8.65Q19.95-10.25 19.28-11.38 18.6-12.5 17.45-13.33 16.3-14.15 14.83-14.75 13.35-15.35 11.7-15.95L11.7-15.95Q9.8-16.6 8.1-17.43 6.4-18.25 5.15-19.38 3.9-20.5 3.18-22.05 2.45-23.6 2.45-25.8L2.45-25.8Q2.45-30.35 5.55-32.9 8.65-35.45 14.1-35.45L14.1-35.45Q17.25-35.45 19.83-34.77 22.4-34.1 23.6-33.3L23.6-33.3 22.05-29.35Q21-30 18.93-30.63 16.85-31.25 14.1-31.25L14.1-31.25Q12.7-31.25 11.5-30.95 10.3-30.65 9.4-30.05 8.5-29.45 7.98-28.53 7.45-27.6 7.45-26.35L7.45-26.35Q7.45-24.95 8-24 8.55-23.05 9.55-22.33 10.55-21.6 11.88-21 13.2-20.4 14.8-19.8L14.8-19.8Q17.05-18.9 18.93-18 20.8-17.1 22.18-15.85 23.55-14.6 24.3-12.88 25.05-11.15 25.05-8.7L25.05-8.7Q25.05-4.15 21.73-1.7 18.4 0.75 12.35 0.75L12.35 0.75Q10.3 0.75 8.58 0.48 6.85 0.2 5.5-0.18 4.15-0.55 3.18-0.98 2.2-1.4 1.65-1.7L1.65-1.7 3.1-5.7Q4.25-5.05 6.6-4.25 8.95-3.45 12.35-3.45ZM34.95-34.05L34.95-26 44.8-26 44.8-22.1 34.95-22.1 34.95-10.1Q34.95-8.15 35.25-6.88 35.55-5.6 36.15-4.88 36.75-4.15 37.65-3.85 38.55-3.55 39.75-3.55L39.75-3.55Q41.85-3.55 43.12-4.03 44.4-4.5 44.9-4.7L44.9-4.7 45.8-0.85Q45.1-0.5 43.35 0.03 41.6 0.55 39.35 0.55L39.35 0.55Q36.7 0.55 34.97-0.13 33.25-0.8 32.2-2.15 31.15-3.5 30.72-5.48 30.3-7.45 30.3-10.05L30.3-10.05 30.3-33.25 34.95-34.05ZM71.4-26L71.4-0.75Q69.8-0.35 67.17 0.1 64.55 0.55 61.1 0.55L61.1 0.55Q58.1 0.55 56.05-0.33 54-1.2 52.75-2.8 51.5-4.4 50.95-6.58 50.4-8.75 50.4-11.4L50.4-11.4 50.4-26 55.05-26 55.05-12.4Q55.05-7.65 56.55-5.6 58.05-3.55 61.6-3.55L61.6-3.55Q62.35-3.55 63.15-3.6 63.95-3.65 64.65-3.73 65.35-3.8 65.92-3.88 66.5-3.95 66.75-4.05L66.75-4.05 66.75-26 71.4-26ZM96.19-4.05L96.19-20.5Q95.34-21.2 93.74-21.85 92.14-22.5 90.24-22.5L90.24-22.5Q88.24-22.5 86.82-21.78 85.39-21.05 84.49-19.78 83.59-18.5 83.19-16.75 82.79-15 82.79-13L82.79-13Q82.79-8.45 85.04-5.98 87.29-3.5 91.04-3.5L91.04-3.5Q92.94-3.5 94.22-3.68 95.49-3.85 96.19-4.05L96.19-4.05ZM96.19-24.85L96.19-38 100.84-38.8 100.84-0.75Q99.24-0.3 96.74 0.15 94.24 0.6 90.99 0.6L90.99 0.6Q87.99 0.6 85.59-0.35 83.19-1.3 81.49-3.05 79.79-4.8 78.87-7.33 77.94-9.85 77.94-13L77.94-13Q77.94-16 78.72-18.5 79.49-21 80.99-22.8 82.49-24.6 84.67-25.6 86.84-26.6 89.64-26.6L89.64-26.6Q91.89-26.6 93.62-26 95.34-25.4 96.19-24.85L96.19-24.85ZM107.39-12.95L107.39-12.95Q107.39-16.4 108.39-18.98 109.39-21.55 111.04-23.25 112.69-24.95 114.84-25.8 116.99-26.65 119.24-26.65L119.24-26.65Q124.49-26.65 127.29-23.38 130.09-20.1 130.09-13.4L130.09-13.4Q130.09-13.1 130.09-12.63 130.09-12.15 130.04-11.75L130.04-11.75 112.24-11.75Q112.54-7.7 114.59-5.6 116.64-3.5 120.99-3.5L120.99-3.5Q123.44-3.5 125.12-3.93 126.79-4.35 127.64-4.75L127.64-4.75 128.29-0.85Q127.44-0.4 125.32 0.1 123.19 0.6 120.49 0.6L120.49 0.6Q117.09 0.6 114.62-0.43 112.14-1.45 110.54-3.25 108.94-5.05 108.17-7.53 107.39-10 107.39-12.95ZM112.34-15.5L125.24-15.5Q125.29-18.65 123.67-20.68 122.04-22.7 119.19-22.7L119.19-22.7Q117.59-22.7 116.37-22.08 115.14-21.45 114.29-20.45 113.44-19.45 112.97-18.15 112.49-16.85 112.34-15.5L112.34-15.5ZM136.79 0L136.79-25.25Q138.39-25.65 141.04-26.1 143.69-26.55 147.14-26.55L147.14-26.55Q150.24-26.55 152.29-25.68 154.34-24.8 155.56-23.23 156.79-21.65 157.29-19.45 157.79-17.25 157.79-14.6L157.79-14.6 157.79 0 153.14 0 153.14-13.6Q153.14-16 152.81-17.7 152.49-19.4 151.74-20.45 150.99-21.5 149.74-21.98 148.49-22.45 146.64-22.45L146.64-22.45Q145.89-22.45 145.09-22.4 144.29-22.35 143.56-22.28 142.84-22.2 142.26-22.1 141.69-22 141.44-21.95L141.44-21.95 141.44 0 136.79 0ZM169.84-34.05L169.84-26 179.69-26 179.69-22.1 169.84-22.1 169.84-10.1Q169.84-8.15 170.14-6.88 170.44-5.6 171.04-4.88 171.64-4.15 172.54-3.85 173.44-3.55 174.64-3.55L174.64-3.55Q176.74-3.55 178.01-4.03 179.29-4.5 179.79-4.7L179.79-4.7 180.69-0.85Q179.99-0.5 178.24 0.03 176.49 0.55 174.24 0.55L174.24 0.55Q171.59 0.55 169.86-0.13 168.14-0.8 167.09-2.15 166.04-3.5 165.61-5.48 165.19-7.45 165.19-10.05L165.19-10.05 165.19-33.25 169.84-34.05ZM219.83 0L197.43 0 197.43-34.65 218.58-34.65 218.58-30.5 202.28-30.5 202.28-20.2 216.78-20.2 216.78-16.15 202.28-16.15 202.28-4.15 219.83-4.15 219.83 0ZM225.68 0L225.68-25.25Q227.28-25.65 229.93-26.1 232.58-26.55 236.03-26.55L236.03-26.55Q239.13-26.55 241.18-25.68 243.23-24.8 244.45-23.23 245.68-21.65 246.18-19.45 246.68-17.25 246.68-14.6L246.68-14.6 246.68 0 242.03 0 242.03-13.6Q242.03-16 241.7-17.7 241.38-19.4 240.63-20.45 239.88-21.5 238.63-21.98 237.38-22.45 235.53-22.45L235.53-22.45Q234.78-22.45 233.98-22.4 233.18-22.35 232.45-22.28 231.73-22.2 231.15-22.1 230.58-22 230.33-21.95L230.33-21.95 230.33 0 225.68 0ZM258.73-34.05L258.73-26 268.58-26 268.58-22.1 258.73-22.1 258.73-10.1Q258.73-8.15 259.03-6.88 259.33-5.6 259.93-4.88 260.53-4.15 261.43-3.85 262.33-3.55 263.53-3.55L263.53-3.55Q265.63-3.55 266.9-4.03 268.18-4.5 268.68-4.7L268.68-4.7 269.58-0.85Q268.88-0.5 267.13 0.03 265.38 0.55 263.13 0.55L263.13 0.55Q260.48 0.55 258.75-0.13 257.03-0.8 255.98-2.15 254.93-3.5 254.5-5.48 254.08-7.45 254.08-10.05L254.08-10.05 254.08-33.25 258.73-34.05ZM284.07-26.55L284.07-26.55Q284.67-26.55 285.45-26.48 286.22-26.4 286.97-26.28 287.72-26.15 288.35-26.03 288.97-25.9 289.27-25.8L289.27-25.8 288.47-21.75Q287.92-21.95 286.65-22.23 285.37-22.5 283.37-22.5L283.37-22.5Q282.07-22.5 280.8-22.23 279.52-21.95 279.12-21.85L279.12-21.85 279.12 0 274.47 0 274.47-24.9Q276.12-25.5 278.57-26.03 281.02-26.55 284.07-26.55ZM290.92 8.6L291.77 4.85Q292.32 5.1 293.2 5.33 294.07 5.55 294.92 5.55L294.92 5.55Q297.67 5.55 299.22 4.33 300.77 3.1 302.02 0.35L302.02 0.35Q298.87-5.65 296.15-12.38 293.42-19.1 291.62-26L291.62-26 296.62-26Q297.17-23.75 297.95-21.15 298.72-18.55 299.67-15.8 300.62-13.05 301.72-10.3 302.82-7.55 304.02-5L304.02-5Q305.92-10.25 307.32-15.4 308.72-20.55 309.97-26L309.97-26 314.77-26Q312.97-18.65 310.77-11.88 308.57-5.1 306.02 0.8L306.02 0.8Q305.02 3.05 303.95 4.67 302.87 6.3 301.57 7.35 300.27 8.4 298.65 8.9 297.02 9.4 294.97 9.4L294.97 9.4Q294.42 9.4 293.82 9.33 293.22 9.25 292.65 9.13 292.07 9 291.6 8.85 291.12 8.7 290.92 8.6L290.92 8.6ZM329.52-9.2L329.52-9.2Q329.52-11.15 330.12-12.68 330.72-14.2 331.74-15.43 332.77-16.65 334.12-17.57 335.47-18.5 336.92-19.2L336.92-19.2Q333.22-22.9 333.22-26.85L333.22-26.85Q333.22-28.85 333.89-30.45 334.57-32.05 335.74-33.15 336.92-34.25 338.54-34.85 340.17-35.45 342.12-35.45L342.12-35.45Q344.12-35.45 345.69-34.85 347.27-34.25 348.34-33.25 349.42-32.25 349.97-30.85 350.52-29.45 350.52-27.9L350.52-27.9Q350.52-26.15 349.94-24.75 349.37-23.35 348.39-22.2 347.42-21.05 346.17-20.1 344.92-19.15 343.52-18.4L343.52-18.4 351.62-10.15Q353.32-13.3 353.82-17.15L353.82-17.15 357.67-16.65Q357.47-14.6 356.64-12.18 355.82-9.75 354.32-7.35L354.32-7.35Q356.07-5.45 357.54-3.6 359.02-1.75 359.97 0L359.97 0 355.07 0Q354.47-1 353.59-2.05 352.72-3.1 351.77-4.15L351.77-4.15Q349.72-2.1 347.02-0.83 344.32 0.45 340.82 0.45L340.82 0.45Q337.57 0.45 335.42-0.48 333.27-1.4 331.94-2.83 330.62-4.25 330.07-5.95 329.52-7.65 329.52-9.2ZM334.17-9.3L334.17-9.3Q334.17-8.4 334.52-7.35 334.87-6.3 335.67-5.43 336.47-4.55 337.74-3.98 339.02-3.4 340.92-3.4L340.92-3.4Q343.37-3.4 345.44-4.3 347.52-5.2 349.12-6.85L349.12-6.85 339.37-16.7Q338.47-16.25 337.54-15.65 336.62-15.05 335.87-14.18 335.12-13.3 334.64-12.1 334.17-10.9 334.17-9.3ZM346.32-27.75L346.32-27.75Q346.32-29.45 345.19-30.63 344.07-31.8 342.12-31.8L342.12-31.8Q339.92-31.8 338.74-30.48 337.57-29.15 337.57-27.2L337.57-27.2Q337.57-23.95 340.97-20.85L340.97-20.85Q342.07-21.4 343.04-22.05 344.02-22.7 344.74-23.55 345.47-24.4 345.89-25.43 346.32-26.45 346.32-27.75ZM372.86-34.65L399.51-34.65 399.51-30.45 388.61-30.45 388.61 0 383.76 0 383.76-30.45 372.86-30.45 372.86-34.65ZM411.91-26.55L411.91-26.55Q412.51-26.55 413.28-26.48 414.06-26.4 414.81-26.28 415.56-26.15 416.18-26.03 416.81-25.9 417.11-25.8L417.11-25.8 416.31-21.75Q415.76-21.95 414.48-22.23 413.21-22.5 411.21-22.5L411.21-22.5Q409.91-22.5 408.63-22.23 407.36-21.95 406.96-21.85L406.96-21.85 406.96 0 402.31 0 402.31-24.9Q403.96-25.5 406.41-26.03 408.86-26.55 411.91-26.55ZM430.41-3.35L430.41-3.35Q432.06-3.35 433.33-3.43 434.61-3.5 435.46-3.7L435.46-3.7 435.46-11.45Q434.96-11.7 433.83-11.88 432.71-12.05 431.11-12.05L431.11-12.05Q430.06-12.05 428.88-11.9 427.71-11.75 426.73-11.28 425.76-10.8 425.11-9.98 424.46-9.15 424.46-7.8L424.46-7.8Q424.46-5.3 426.06-4.33 427.66-3.35 430.41-3.35ZM430.01-26.65L430.01-26.65Q432.81-26.65 434.73-25.93 436.66-25.2 437.83-23.88 439.01-22.55 439.51-20.73 440.01-18.9 440.01-16.7L440.01-16.7 440.01-0.45Q439.41-0.35 438.33-0.18 437.26 0 435.91 0.15 434.56 0.3 432.98 0.43 431.41 0.55 429.86 0.55L429.86 0.55Q427.66 0.55 425.81 0.1 423.96-0.35 422.61-1.33 421.26-2.3 420.51-3.9 419.76-5.5 419.76-7.75L419.76-7.75Q419.76-9.9 420.63-11.45 421.51-13 423.01-13.95 424.51-14.9 426.51-15.35 428.51-15.8 430.71-15.8L430.71-15.8Q431.41-15.8 432.16-15.73 432.91-15.65 433.58-15.53 434.26-15.4 434.76-15.3 435.26-15.2 435.46-15.15L435.46-15.15 435.46-16.45Q435.46-17.6 435.21-18.73 434.96-19.85 434.31-20.73 433.66-21.6 432.53-22.13 431.41-22.65 429.61-22.65L429.61-22.65Q427.31-22.65 425.58-22.33 423.86-22 423.01-21.65L423.01-21.65 422.46-25.5Q423.36-25.9 425.46-26.28 427.56-26.65 430.01-26.65ZM459 0.6L459 0.6Q455.85 0.6 453.48-0.4 451.1-1.4 449.48-3.2 447.85-5 447.05-7.48 446.25-9.95 446.25-12.95L446.25-12.95Q446.25-15.95 447.13-18.45 448-20.95 449.6-22.78 451.2-24.6 453.53-25.63 455.85-26.65 458.7-26.65L458.7-26.65Q460.45-26.65 462.2-26.35 463.95-26.05 465.55-25.4L465.55-25.4 464.5-21.45Q463.45-21.95 462.08-22.25 460.7-22.55 459.15-22.55L459.15-22.55Q455.25-22.55 453.18-20.1 451.1-17.65 451.1-12.95L451.1-12.95Q451.1-10.85 451.58-9.1 452.05-7.35 453.08-6.1 454.1-4.85 455.7-4.17 457.3-3.5 459.6-3.5L459.6-3.5Q461.45-3.5 462.95-3.85 464.45-4.2 465.3-4.6L465.3-4.6 465.95-0.7Q465.55-0.45 464.8-0.23 464.05 0 463.1 0.18 462.15 0.35 461.08 0.48 460 0.6 459 0.6ZM480.35-14.3L480.35-14.3Q481.85-13.15 483.53-11.45 485.2-9.75 486.83-7.78 488.45-5.8 489.9-3.78 491.35-1.75 492.35 0L492.35 0 486.9 0Q485.85-1.75 484.48-3.58 483.1-5.4 481.6-7.08 480.1-8.75 478.55-10.15 477-11.55 475.6-12.5L475.6-12.5 475.6 0 470.95 0 470.95-38 475.6-38.8 475.6-15.1Q476.8-16.3 478.25-17.75 479.7-19.2 481.1-20.7 482.5-22.2 483.75-23.58 485-24.95 485.9-26L485.9-26 491.35-26Q490.2-24.75 488.85-23.25 487.5-21.75 486.05-20.23 484.6-18.7 483.13-17.18 481.65-15.65 480.35-14.3ZM501.7-26L501.7 0 497.05 0 497.05-26 501.7-26ZM499.35-30.7L499.35-30.7Q498.1-30.7 497.22-31.53 496.35-32.35 496.35-33.75L496.35-33.75Q496.35-35.15 497.22-35.98 498.1-36.8 499.35-36.8L499.35-36.8Q500.6-36.8 501.47-35.98 502.35-35.15 502.35-33.75L502.35-33.75Q502.35-32.35 501.47-31.53 500.6-30.7 499.35-30.7ZM509.7 0L509.7-25.25Q511.3-25.65 513.95-26.1 516.6-26.55 520.05-26.55L520.05-26.55Q523.15-26.55 525.2-25.68 527.25-24.8 528.47-23.23 529.7-21.65 530.2-19.45 530.7-17.25 530.7-14.6L530.7-14.6 530.7 0 526.05 0 526.05-13.6Q526.05-16 525.72-17.7 525.4-19.4 524.65-20.45 523.9-21.5 522.65-21.98 521.4-22.45 519.55-22.45L519.55-22.45Q518.8-22.45 518-22.4 517.2-22.35 516.47-22.28 515.75-22.2 515.17-22.1 514.6-22 514.35-21.95L514.35-21.95 514.35 0 509.7 0ZM554.69-1.5L554.69-2.6Q554.09-2.2 552.37-1.58 550.64-0.95 548.34-0.95L548.34-0.95Q545.99-0.95 543.92-1.7 541.84-2.45 540.29-4.03 538.74-5.6 537.84-7.95 536.94-10.3 536.94-13.55L536.94-13.55Q536.94-16.4 537.79-18.78 538.64-21.15 540.27-22.88 541.89-24.6 544.24-25.58 546.59-26.55 549.54-26.55L549.54-26.55Q552.79-26.55 555.22-26.08 557.64-25.6 559.29-25.2L559.29-25.2 559.29-2Q559.29 4 556.19 6.7 553.09 9.4 546.79 9.4L546.79 9.4Q544.34 9.4 542.17 9 539.99 8.6 538.39 8.05L538.39 8.05 539.24 4Q540.64 4.55 542.67 4.98 544.69 5.4 546.89 5.4L546.89 5.4Q551.04 5.4 552.87 3.75 554.69 2.1 554.69-1.5L554.69-1.5ZM554.64-6.7L554.64-21.9Q553.94-22.1 552.77-22.28 551.59-22.45 549.59-22.45L549.59-22.45Q545.84-22.45 543.82-20 541.79-17.55 541.79-13.5L541.79-13.5Q541.79-11.25 542.37-9.65 542.94-8.05 543.92-7 544.89-5.95 546.17-5.45 547.44-4.95 548.79-4.95L548.79-4.95Q550.64-4.95 552.19-5.48 553.74-6 554.64-6.7L554.64-6.7ZM596.09-14.5L596.09-14.5Q596.89-13.5 598.11-11.88 599.34-10.25 600.64-8.28 601.94-6.3 603.21-4.15 604.49-2 605.39 0L605.39 0 600.09 0Q599.09-1.9 597.91-3.85 596.74-5.8 595.54-7.58 594.34-9.35 593.16-10.9 591.99-12.45 591.04-13.6L591.04-13.6Q590.39-13.55 589.71-13.55 589.04-13.55 588.34-13.55L588.34-13.55 583.99-13.55 583.99 0 579.14 0 579.14-34.15Q581.19-34.65 583.71-34.83 586.24-35 588.34-35L588.34-35Q595.64-35 599.46-32.25 603.29-29.5 603.29-24.05L603.29-24.05Q603.29-20.6 601.46-18.15 599.64-15.7 596.09-14.5ZM588.74-30.75L588.74-30.75Q585.64-30.75 583.99-30.6L583.99-30.6 583.99-17.55 587.44-17.55Q589.94-17.55 591.94-17.8 593.94-18.05 595.31-18.75 596.69-19.45 597.44-20.73 598.19-22 598.19-24.1L598.19-24.1Q598.19-26.05 597.44-27.35 596.69-28.65 595.41-29.4 594.14-30.15 592.41-30.45 590.69-30.75 588.74-30.75ZM608.83-12.95L608.83-12.95Q608.83-16.4 609.83-18.98 610.83-21.55 612.49-23.25 614.13-24.95 616.28-25.8 618.43-26.65 620.68-26.65L620.68-26.65Q625.93-26.65 628.74-23.38 631.53-20.1 631.53-13.4L631.53-13.4Q631.53-13.1 631.53-12.63 631.53-12.15 631.49-11.75L631.49-11.75 613.68-11.75Q613.99-7.7 616.03-5.6 618.08-3.5 622.43-3.5L622.43-3.5Q624.88-3.5 626.56-3.93 628.24-4.35 629.08-4.75L629.08-4.75 629.74-0.85Q628.88-0.4 626.76 0.1 624.63 0.6 621.93 0.6L621.93 0.6Q618.53 0.6 616.06-0.43 613.58-1.45 611.99-3.25 610.38-5.05 609.61-7.53 608.83-10 608.83-12.95ZM613.78-15.5L626.68-15.5Q626.74-18.65 625.11-20.68 623.49-22.7 620.63-22.7L620.63-22.7Q619.03-22.7 617.81-22.08 616.58-21.45 615.74-20.45 614.88-19.45 614.41-18.15 613.93-16.85 613.78-15.5L613.78-15.5ZM654.53-1.5L654.53-2.6Q653.93-2.2 652.21-1.58 650.48-0.95 648.18-0.95L648.18-0.95Q645.83-0.95 643.76-1.7 641.68-2.45 640.13-4.03 638.58-5.6 637.68-7.95 636.78-10.3 636.78-13.55L636.78-13.55Q636.78-16.4 637.63-18.78 638.48-21.15 640.11-22.88 641.73-24.6 644.08-25.58 646.43-26.55 649.38-26.55L649.38-26.55Q652.63-26.55 655.06-26.08 657.48-25.6 659.13-25.2L659.13-25.2 659.13-2Q659.13 4 656.03 6.7 652.93 9.4 646.63 9.4L646.63 9.4Q644.18 9.4 642.01 9 639.83 8.6 638.23 8.05L638.23 8.05 639.08 4Q640.48 4.55 642.51 4.98 644.53 5.4 646.73 5.4L646.73 5.4Q650.88 5.4 652.71 3.75 654.53 2.1 654.53-1.5L654.53-1.5ZM654.48-6.7L654.48-21.9Q653.78-22.1 652.61-22.28 651.43-22.45 649.43-22.45L649.43-22.45Q645.68-22.45 643.66-20 641.63-17.55 641.63-13.5L641.63-13.5Q641.63-11.25 642.21-9.65 642.78-8.05 643.76-7 644.73-5.95 646.01-5.45 647.28-4.95 648.63-4.95L648.63-4.95Q650.48-4.95 652.03-5.48 653.58-6 654.48-6.7L654.48-6.7ZM671.78-26L671.78 0 667.13 0 667.13-26 671.78-26ZM669.43-30.7L669.43-30.7Q668.18-30.7 667.3-31.53 666.43-32.35 666.43-33.75L666.43-33.75Q666.43-35.15 667.3-35.98 668.18-36.8 669.43-36.8L669.43-36.8Q670.68-36.8 671.55-35.98 672.43-35.15 672.43-33.75L672.43-33.75Q672.43-32.35 671.55-31.53 670.68-30.7 669.43-30.7ZM685.83-3.35L685.83-3.35Q688.68-3.35 690.05-4.1 691.43-4.85 691.43-6.5L691.43-6.5Q691.43-8.2 690.08-9.2 688.73-10.2 685.63-11.45L685.63-11.45Q684.13-12.05 682.75-12.68 681.38-13.3 680.38-14.15 679.38-15 678.78-16.2 678.18-17.4 678.18-19.15L678.18-19.15Q678.18-22.6 680.73-24.63 683.28-26.65 687.68-26.65L687.68-26.65Q688.78-26.65 689.88-26.53 690.98-26.4 691.93-26.23 692.88-26.05 693.6-25.85 694.33-25.65 694.73-25.5L694.73-25.5 693.88-21.5Q693.13-21.9 691.53-22.33 689.93-22.75 687.68-22.75L687.68-22.75Q685.73-22.75 684.28-21.98 682.83-21.2 682.83-19.55L682.83-19.55Q682.83-18.7 683.15-18.05 683.48-17.4 684.15-16.88 684.83-16.35 685.83-15.9 686.83-15.45 688.23-14.95L688.23-14.95Q690.08-14.25 691.53-13.58 692.98-12.9 694-12 695.03-11.1 695.58-9.83 696.13-8.55 696.13-6.7L696.13-6.7Q696.13-3.1 693.45-1.25 690.78 0.6 685.83 0.6L685.83 0.6Q682.38 0.6 680.43 0.03 678.48-0.55 677.78-0.85L677.78-0.85 678.63-4.85Q679.43-4.55 681.18-3.95 682.93-3.35 685.83-3.35ZM706.42-34.05L706.42-26 716.27-26 716.27-22.1 706.42-22.1 706.42-10.1Q706.42-8.15 706.72-6.88 707.02-5.6 707.62-4.88 708.22-4.15 709.12-3.85 710.02-3.55 711.22-3.55L711.22-3.55Q713.32-3.55 714.6-4.03 715.87-4.5 716.37-4.7L716.37-4.7 717.27-0.85Q716.57-0.5 714.82 0.03 713.07 0.55 710.82 0.55L710.82 0.55Q708.17 0.55 706.45-0.13 704.72-0.8 703.67-2.15 702.62-3.5 702.2-5.48 701.77-7.45 701.77-10.05L701.77-10.05 701.77-33.25 706.42-34.05ZM731.77-26.55L731.77-26.55Q732.37-26.55 733.15-26.48 733.92-26.4 734.67-26.28 735.42-26.15 736.05-26.03 736.67-25.9 736.97-25.8L736.97-25.8 736.17-21.75Q735.62-21.95 734.35-22.23 733.07-22.5 731.07-22.5L731.07-22.5Q729.77-22.5 728.5-22.23 727.22-21.95 726.82-21.85L726.82-21.85 726.82 0 722.17 0 722.17-24.9Q723.82-25.5 726.27-26.03 728.72-26.55 731.77-26.55ZM738.62 8.6L739.47 4.85Q740.02 5.1 740.89 5.33 741.77 5.55 742.62 5.55L742.62 5.55Q745.37 5.55 746.92 4.33 748.47 3.1 749.72 0.35L749.72 0.35Q746.57-5.65 743.84-12.38 741.12-19.1 739.32-26L739.32-26 744.32-26Q744.87-23.75 745.64-21.15 746.42-18.55 747.37-15.8 748.32-13.05 749.42-10.3 750.52-7.55 751.72-5L751.72-5Q753.62-10.25 755.02-15.4 756.42-20.55 757.67-26L757.67-26 762.47-26Q760.67-18.65 758.47-11.88 756.27-5.1 753.72 0.8L753.72 0.8Q752.72 3.05 751.64 4.67 750.57 6.3 749.27 7.35 747.97 8.4 746.34 8.9 744.72 9.4 742.67 9.4L742.67 9.4Q742.12 9.4 741.52 9.33 740.92 9.25 740.34 9.13 739.77 9 739.29 8.85 738.82 8.7 738.62 8.6L738.62 8.6Z" opacity="1" transform="matrix(1,0,0,1,0,0)" fill="#ffdc00" class="slogan-text-1" data-fill-palette-color="secondary" id="text-1"></path></svg></g></svg></g></svg></g></svg></g></svg></g></svg></g></svg></g><path d="M155.437 60.322L155.437 5.234 392.17 5.234 392.17 241.966 155.437 241.966 155.437 186.878 162.665 186.878 162.665 234.738 384.942 234.738 384.942 12.462 162.665 12.462 162.665 60.322Z" fill="#3d3839" stroke="transparent" data-fill-palette-color="tertiary"></path></svg></g><defs></defs></svg><rect width="395.52" height="247.2" fill="none" stroke="none" visibility="hidden"></rect></g></svg></g></svg>