<svg xmlns="http://www.w3.org/2000/svg" version="1.1" xmlns:xlink="http://www.w3.org/1999/xlink" xmlns:svgjs="http://svgjs.dev/svgjs" width="1500" height="1500" viewBox="0 0 1500 1500"><rect width="1500" height="1500" fill="#000000"></rect><g transform="matrix(0.6666666666666666,0,0,0.6666666666666666,249.39393939393938,612.0890464648526)"><svg viewBox="0 0 396 109" data-background-color="#fafafa" preserveAspectRatio="xMidYMid meet" height="412" width="1500" xmlns="http://www.w3.org/2000/svg" xmlns:xlink="http://www.w3.org/1999/xlink"><g id="tight-bounds" transform="matrix(1,0,0,1,0.2400000000000091,0.22922549271024195)"><svg viewBox="0 0 395.52 108.54154901457952" height="108.54154901457952" width="395.52"><g><svg viewBox="0 0 546.4721733503577 149.96697054210065" height="108.54154901457952" width="395.52"><g><rect width="9.54821942536767" height="149.96697054210065" x="116.40861511512702" y="0" fill="#ffffff" opacity="1" stroke-width="0" stroke="transparent" fill-opacity="1" class="rect-qz-0" data-fill-palette-color="primary" rx="1%" id="qz-0" data-palette-color="#130912"></rect></g><g transform="matrix(1,0,0,1,150.9521733503577,0.37305216552761067)"><svg viewBox="0 0 395.52 149.22086621104543" height="149.22086621104543" width="395.52"><g id="textblocktransform"><svg viewBox="0 0 395.52 149.22086621104543" height="149.22086621104543" width="395.52" id="textblock"><g><svg viewBox="0 0 395.52 105.87835616438355" height="105.87835616438355" width="395.52"><g transform="matrix(1,0,0,1,0,0)"><svg width="395.52" viewBox="3.65 -35 175.19 46.9" height="105.87835616438355" data-palette-color="#130912"><path d="M18.95-19.4Q25.55-17.55 28.9-15.05 32.25-12.55 32.25-8.4L32.25-8.4Q32.25-5.7 30.78-3.63 29.3-1.55 26.7-0.45 24.1 0.65 20.85 0.65L20.85 0.65Q17.3 0.65 14.1-0.85 10.9-2.35 8.2-5.05L8.2-5.05 8.2-0.05 3.65-0.05 3.65-11.6 6.55-11.75Q9.2-7.9 13-5.7 16.8-3.5 20.55-3.5L20.55-3.5Q23.35-3.5 25.13-4.7 26.9-5.9 26.9-7.95L26.9-7.95Q26.9-10.2 24.4-11.83 21.9-13.45 15.9-15L15.9-15Q9.65-16.65 6.75-19.33 3.85-22 3.85-25.9L3.85-25.9Q3.85-28.6 5.33-30.68 6.8-32.75 9.3-33.88 11.8-35 14.75-35L14.75-35Q21.7-35 26-29.9L26-29.9 26-34.3 30.55-34.3 30.55-22.9 27.75-22.75Q25.65-26.75 22.6-28.8 19.55-30.85 15.9-30.85L15.9-30.85Q12.95-30.85 11.08-29.58 9.2-28.3 9.2-26.15L9.2-26.15Q9.2-23.95 11.48-22.38 13.75-20.8 18.95-19.4L18.95-19.4ZM58.6-6.7L60.7-3.5Q55.9 0.7 49.75 0.7L49.75 0.7Q46.4 0.7 43.4-0.7 40.4-2.1 38.55-4.8 36.7-7.5 36.7-11.2L36.7-11.2Q36.7-15.15 38.6-18.1 40.5-21.05 43.55-22.63 46.6-24.2 49.95-24.2L49.95-24.2Q52.9-24.2 55.22-23.25 57.55-22.3 58.87-20.6 60.2-18.9 60.2-16.7L60.2-16.7Q60.2-13.4 57.37-11.58 54.55-9.75 50.6-9.75L50.6-9.75Q48.05-9.75 45.85-10.28 43.65-10.8 41.4-11.8L41.4-11.8 41.4-11.35Q41.4-9 42.52-7.2 43.65-5.4 45.55-4.45 47.45-3.5 49.7-3.5L49.7-3.5Q54.8-3.5 58.6-6.7L58.6-6.7ZM50.3-20.3Q47.6-20.3 45.27-18.75 42.95-17.2 41.95-14.55L41.95-14.55Q45.75-13.2 49.55-13.2L49.55-13.2Q52.05-13.2 53.67-14.13 55.3-15.05 55.3-16.7L55.3-16.7Q55.3-18.3 53.9-19.3 52.5-20.3 50.3-20.3L50.3-20.3ZM93.6-3.95L98.3-3.95 98.3 0 84.4 0 84.4-3.95 88.75-3.95 88.75-13.7Q88.75-16.45 87.37-18.03 86-19.6 83.45-19.6L83.45-19.6Q79.1-19.6 74.25-14.1L74.25-14.1 74.25-3.95 78.6-3.95 78.6 0 64.05 0 64.05-3.95 69.35-3.95 69.35-19.6 64.05-19.6 64.05-23.55 74.25-23.55 74.25-18Q77.05-21.1 79.62-22.63 82.2-24.15 85.15-24.15L85.15-24.15Q89.2-24.15 91.4-21.55 93.6-18.95 93.6-13.85L93.6-13.85 93.6-3.95ZM118.44-5.35L120.14-1.65Q118.29-0.55 116.52 0.05 114.74 0.65 112.44 0.65L112.44 0.65Q108.59 0.65 106.32-1.78 104.04-4.2 104.04-8.7L104.04-8.7 104.04-19.6 98.79-19.6 98.79-23.55 104.04-23.55 104.04-30.1 108.94-30.1 108.94-23.55 116.74-23.55 116.74-19.6 108.94-19.6 108.94-8.65Q108.94-6.1 110.09-4.9 111.24-3.7 113.19-3.7L113.19-3.7Q114.59-3.7 115.84-4.13 117.09-4.55 118.44-5.35L118.44-5.35ZM143.09-24.15L145.19-24.15 145.19-14.15 140.84-14.15 140.84-19.3Q138.89-19.3 136.59-17.85 134.29-16.4 131.84-13.75L131.84-13.75 131.84-3.95 137.19-3.95 137.19 0 121.64 0 121.64-3.95 126.94-3.95 126.94-19.6 121.64-19.6 121.64-23.55 131.84-23.55 131.84-17.65Q134.49-20.7 137.37-22.43 140.24-24.15 143.09-24.15L143.09-24.15ZM178.84-23.55L178.84-19.6 175.14-19.6 165.24 2.6Q163.14 7.25 160.51 9.58 157.89 11.9 154.39 11.9L154.39 11.9Q152.44 11.9 150.86 11.28 149.29 10.65 147.44 9.45L147.44 9.45 149.44 5.7Q151.99 7.55 154.39 7.55L154.39 7.55Q156.54 7.55 158.24 6.18 159.94 4.8 161.24 1.8L161.24 1.8 161.59 1 151.49-19.6 147.59-19.6 147.59-23.55 160.79-23.55 160.79-19.95 156.74-19.95 163.84-4.15 170.79-19.95 166.94-19.95 166.94-23.55 178.84-23.55Z" opacity="1" transform="matrix(1,0,0,1,0,0)" fill="#ffffff" class="wordmark-text-0" data-fill-palette-color="primary" id="text-0"></path></svg></g></svg></g><g transform="matrix(1,0,0,1,0,130.87369497424655)"><svg viewBox="0 0 232.209792 18.347171236798875" height="18.347171236798875" width="232.209792"><g transform="matrix(1,0,0,1,0,0)"><svg width="232.209792" viewBox="0.35 -39.65 639.0699999999999 50.5" height="18.347171236798875" data-palette-color="#130912"><path d="M11.75-35.25Q14.75-35.25 17.05-34.2 19.35-33.15 21.3-31.05L21.3-31.05 18.35-27.65Q16.8-29.05 15.33-29.75 13.85-30.45 12.2-30.45L12.2-30.45Q10.3-30.45 9.2-29.28 8.1-28.1 8.1-26.2L8.1-26.2Q8.1-24.3 9.25-23.1 10.4-21.9 13.75-20.6L13.75-20.6Q18.05-18.85 20.08-16.5 22.1-14.15 22.1-9.85L22.1-9.85Q22.1-6.9 20.75-4.48 19.4-2.05 16.88-0.65 14.35 0.75 11 0.75L11 0.75Q7.55 0.75 5-0.48 2.45-1.7 0.35-3.95L0.35-3.95 3.55-7.45Q5.35-5.85 7-5 8.65-4.15 10.6-4.15L10.6-4.15Q12.9-4.15 14.18-5.58 15.45-7 15.45-9.45L15.45-9.45Q15.45-11.6 14.33-12.98 13.2-14.35 10.15-15.5L10.15-15.5Q5.55-17.35 3.53-19.75 1.5-22.15 1.5-25.75L1.5-25.75Q1.5-28.5 2.83-30.65 4.15-32.8 6.5-34.02 8.85-35.25 11.75-35.25L11.75-35.25ZM37.25-5L39.4-1.2Q36.95 0.75 33.65 0.75L33.65 0.75Q30.2 0.75 28.4-1.23 26.6-3.2 26.6-6.6L26.6-6.6 26.6-22 23.5-22 23.5-26.45 26.6-26.45 26.6-32.3 32.75-33.05 32.75-26.45 37.75-26.45 37.15-22 32.75-22 32.75-6.6Q32.75-4.2 34.8-4.2L34.8-4.2Q35.45-4.2 35.95-4.38 36.45-4.55 37.25-5L37.25-5ZM60.09-26.45L60.09 0 54.74 0 54.45-3.35Q53.2-1.3 51.64-0.28 50.09 0.75 48.05 0.75L48.05 0.75Q45.14 0.75 43.47-1.3 41.8-3.35 41.8-6.65L41.8-6.65 41.8-26.45 47.95-26.45 47.95-7Q47.95-3.9 50.05-3.9L50.05-3.9Q51.24-3.9 52.2-4.83 53.14-5.75 53.95-7.45L53.95-7.45 53.95-26.45 60.09-26.45ZM78.74-37.7L84.89-37.05 84.89 0 79.44 0 79.14-3.05Q76.79 0.75 73.09 0.75L73.09 0.75Q68.99 0.75 66.82-2.93 64.64-6.6 64.64-13.2L64.64-13.2Q64.64-17.4 65.77-20.58 66.89-23.75 68.89-25.45 70.89-27.15 73.49-27.15L73.49-27.15Q76.69-27.15 78.74-24.5L78.74-24.5 78.74-37.7ZM74.84-3.9Q75.99-3.9 76.92-4.7 77.84-5.5 78.74-7L78.74-7 78.74-19.85Q77.14-22.55 75.09-22.55L75.09-22.55Q71.04-22.55 71.04-13.25L71.04-13.25Q71.04-8.2 72.04-6.05 73.04-3.9 74.84-3.9L74.84-3.9ZM109.44-13.85Q109.44-13.4 109.29-11.3L109.29-11.3 95.64-11.3Q95.84-7.2 97.07-5.58 98.29-3.95 100.54-3.95L100.54-3.95Q102.09-3.95 103.34-4.48 104.59-5 106.04-6.15L106.04-6.15 108.59-2.65Q105.09 0.75 100.19 0.75L100.19 0.75Q94.99 0.75 92.22-2.85 89.44-6.45 89.44-13L89.44-13Q89.44-19.55 92.09-23.35 94.74-27.15 99.59-27.15L99.59-27.15Q104.24-27.15 106.84-23.78 109.44-20.4 109.44-13.85L109.44-13.85ZM103.44-15.3L103.44-15.65Q103.44-19.4 102.54-21.13 101.64-22.85 99.64-22.85L99.64-22.85Q97.79-22.85 96.82-21.18 95.84-19.5 95.64-15.3L95.64-15.3 103.44-15.3ZM126.09-27.15Q128.94-27.15 130.59-25.1 132.24-23.05 132.24-19.6L132.24-19.6 132.24 0 126.09 0 126.09-18.9Q126.09-20.8 125.56-21.63 125.04-22.45 124.04-22.45L124.04-22.45Q121.94-22.45 119.89-18.5L119.89-18.5 119.89 0 113.74 0 113.74-26.45 119.09-26.45 119.54-23Q120.89-25.1 122.41-26.13 123.94-27.15 126.09-27.15L126.09-27.15ZM148.94-5L151.09-1.2Q148.64 0.75 145.34 0.75L145.34 0.75Q141.89 0.75 140.09-1.23 138.29-3.2 138.29-6.6L138.29-6.6 138.29-22 135.19-22 135.19-26.45 138.29-26.45 138.29-32.3 144.44-33.05 144.44-26.45 149.44-26.45 148.84-22 144.44-22 144.44-6.6Q144.44-4.2 146.49-4.2L146.49-4.2Q147.14-4.2 147.64-4.38 148.14-4.55 148.94-5L148.94-5ZM163.63-34.55L180.78-34.55 180.13-29.8 169.98-29.8 169.98-19.9 178.83-19.9 178.83-15.2 169.98-15.2 169.98-4.8 180.78-4.8 180.78 0 163.63 0 163.63-34.55ZM197.48-27.15Q200.33-27.15 201.98-25.1 203.63-23.05 203.63-19.6L203.63-19.6 203.63 0 197.48 0 197.48-18.9Q197.48-20.8 196.95-21.63 196.43-22.45 195.43-22.45L195.43-22.45Q193.33-22.45 191.28-18.5L191.28-18.5 191.28 0 185.13 0 185.13-26.45 190.48-26.45 190.93-23Q192.28-25.1 193.8-26.13 195.33-27.15 197.48-27.15L197.48-27.15ZM220.33-5L222.48-1.2Q220.03 0.75 216.73 0.75L216.73 0.75Q213.28 0.75 211.48-1.23 209.68-3.2 209.68-6.6L209.68-6.6 209.68-22 206.58-22 206.58-26.45 209.68-26.45 209.68-32.3 215.83-33.05 215.83-26.45 220.83-26.45 220.23-22 215.83-22 215.83-6.6Q215.83-4.2 217.88-4.2L217.88-4.2Q218.53-4.2 219.03-4.38 219.53-4.55 220.33-5L220.33-5ZM236.67-27.1Q237.82-27.1 238.72-26.75L238.72-26.75 237.72-20.85Q236.72-21.1 235.87-21.1L235.87-21.1Q233.97-21.1 232.87-19.45 231.77-17.8 231.17-14.55L231.17-14.55 231.17 0 225.02 0 225.02-26.45 230.37-26.45 230.82-21.85Q232.67-27.1 236.67-27.1L236.67-27.1ZM260.22-26.45L253.22 0.1Q251.92 4.9 249.02 7.65 246.12 10.4 241.27 10.85L241.27 10.85 240.57 6.5Q243.72 5.85 245.3 4.42 246.87 3 247.77 0L247.77 0 245.47 0 238.77-26.45 245.02-26.45 249.42-4.1 254.12-26.45 260.22-26.45ZM283.12-35.25Q287.17-35.25 289.49-33.08 291.82-30.9 291.82-27.35L291.82-27.35Q291.82-24.5 290.37-22.35 288.92-20.2 286.12-18.1L286.12-18.1 292.22-10.7Q293.57-14.65 294.27-18.35L294.27-18.35 299.22-17.1Q297.72-11.45 295.52-7.45L295.52-7.45 300.47-2.15 295.52 0.75 291.97-3.65Q290.02-1.4 287.77-0.33 285.52 0.75 282.77 0.75L282.77 0.75Q279.92 0.75 277.67-0.45 275.42-1.65 274.17-3.83 272.92-6 272.92-8.8L272.92-8.8Q272.92-11.85 274.29-14.08 275.67-16.3 278.67-18.6L278.67-18.6Q276.37-21 275.47-22.88 274.57-24.75 274.57-27.25L274.57-27.25Q274.57-30.75 276.77-33 278.97-35.25 283.12-35.25L283.12-35.25ZM283.22-31.15Q280.42-31.15 280.42-27.25L280.42-27.25Q280.42-25.5 280.97-24.23 281.52-22.95 282.92-21.15L282.92-21.15Q284.57-22.7 285.27-24 285.97-25.3 285.97-27.2L285.97-27.2Q285.97-31.15 283.22-31.15L283.22-31.15ZM282.02-15.25Q280.57-13.95 279.94-12.48 279.32-11 279.32-9L279.32-9Q279.32-6.5 280.52-5.15 281.72-3.8 283.77-3.8L283.77-3.8Q285.32-3.8 286.57-4.53 287.82-5.25 288.97-6.7L288.97-6.7 282.02-15.25ZM311.56-34.55L333.11-34.55 332.41-29.55 325.31-29.55 325.31 0 318.96 0 318.96-29.55 311.56-29.55 311.56-34.55ZM347.66-27.1Q348.81-27.1 349.71-26.75L349.71-26.75 348.71-20.85Q347.71-21.1 346.86-21.1L346.86-21.1Q344.96-21.1 343.86-19.45 342.76-17.8 342.16-14.55L342.16-14.55 342.16 0 336.01 0 336.01-26.45 341.36-26.45 341.81-21.85Q343.66-27.1 347.66-27.1L347.66-27.1ZM369.46-6.4Q369.46-5.1 369.81-4.48 370.16-3.85 370.96-3.45L370.96-3.45 369.71 0.65Q367.66 0.4 366.43-0.45 365.21-1.3 364.61-3.05L364.61-3.05Q362.31 0.75 358.16 0.75L358.16 0.75Q354.86 0.75 352.91-1.48 350.96-3.7 350.96-7.4L350.96-7.4Q350.96-11.7 353.63-13.95 356.31-16.2 361.41-16.2L361.41-16.2 363.46-16.2 363.46-18.05Q363.46-20.55 362.58-21.58 361.71-22.6 359.76-22.6L359.76-22.6Q357.41-22.6 353.91-21.3L353.91-21.3 352.51-25.3Q354.51-26.2 356.66-26.68 358.81-27.15 360.76-27.15L360.76-27.15Q369.46-27.15 369.46-18.35L369.46-18.35 369.46-6.4ZM359.81-3.7Q362.21-3.7 363.46-7L363.46-7 363.46-12.55 362.01-12.55Q359.46-12.55 358.28-11.4 357.11-10.25 357.11-7.85L357.11-7.85Q357.11-5.8 357.81-4.75 358.51-3.7 359.81-3.7L359.81-3.7ZM384.75-27.15Q386.9-27.15 388.65-26.43 390.4-25.7 392-24.15L392-24.15 389.35-20.65Q388.25-21.55 387.28-21.98 386.3-22.4 385.15-22.4L385.15-22.4Q382.9-22.4 381.75-20.28 380.6-18.15 380.6-13.1L380.6-13.1Q380.6-8.2 381.78-6.2 382.95-4.2 385.15-4.2L385.15-4.2Q386.25-4.2 387.15-4.6 388.05-5 389.25-5.85L389.25-5.85 392-2.3Q388.8 0.75 384.85 0.75L384.85 0.75Q379.75 0.75 376.93-2.73 374.1-6.2 374.1-13L374.1-13Q374.1-17.4 375.4-20.6 376.7-23.8 379.13-25.48 381.55-27.15 384.75-27.15L384.75-27.15ZM395.05-37.05L401.2-37.7 401.2 0 395.05 0 395.05-37.05ZM408.55-26.45L414.55-26.45 407.55-14.75 415.15 0 408.55 0 401.45-14.45 408.55-26.45ZM417.7-26.45L423.85-26.45 423.85 0 417.7 0 417.7-26.45ZM420.75-39.65Q422.4-39.65 423.42-38.6 424.45-37.55 424.45-35.9L424.45-35.9Q424.45-34.3 423.42-33.25 422.4-32.2 420.75-32.2L420.75-32.2Q419.1-32.2 418.07-33.25 417.05-34.3 417.05-35.9L417.05-35.9Q417.05-37.55 418.07-38.6 419.1-39.65 420.75-39.65L420.75-39.65ZM441.9-27.15Q444.75-27.15 446.4-25.1 448.05-23.05 448.05-19.6L448.05-19.6 448.05 0 441.9 0 441.9-18.9Q441.9-20.8 441.37-21.63 440.85-22.45 439.85-22.45L439.85-22.45Q437.75-22.45 435.7-18.5L435.7-18.5 435.7 0 429.55 0 429.55-26.45 434.9-26.45 435.35-23Q436.7-25.1 438.22-26.13 439.75-27.15 441.9-27.15L441.9-27.15ZM471.54-29.85L473.09-25.1Q472.04-24.6 470.57-24.4 469.09-24.2 466.89-24.2L466.89-24.2Q468.99-23.2 470.02-21.53 471.04-19.85 471.04-17.4L471.04-17.4Q471.04-13.4 468.59-10.95 466.14-8.5 461.94-8.5L461.94-8.5Q460.69-8.5 459.39-8.9L459.39-8.9Q458.49-8.15 458.49-6.85L458.49-6.85Q458.49-5.85 459.04-5.35 459.59-4.85 461.09-4.85L461.09-4.85 463.89-4.85Q467.89-4.85 470.24-2.78 472.59-0.7 472.59 2.5L472.59 2.5Q472.59 6.3 469.67 8.58 466.74 10.85 461.34 10.85L461.34 10.85Q455.64 10.85 453.37 8.75 451.09 6.65 451.09 2.6L451.09 2.6 456.54 2.6Q456.54 4.75 457.54 5.65 458.54 6.55 461.39 6.55L461.39 6.55Q464.14 6.55 465.29 5.6 466.44 4.65 466.44 2.9L466.44 2.9Q466.44 1.2 465.49 0.4 464.54-0.4 462.54-0.4L462.54-0.4 460.64-0.4Q456.84-0.4 455.09-1.75 453.34-3.1 453.34-5.45L453.34-5.45Q453.34-6.8 454.07-8.03 454.79-9.25 456.04-10.2L456.04-10.2Q453.99-11.5 453.04-13.3 452.09-15.1 452.09-17.7L452.09-17.7Q452.09-22.05 454.69-24.58 457.29-27.1 461.69-27.1L461.69-27.1Q464.94-27.1 467.07-27.8 469.19-28.5 471.54-29.85L471.54-29.85ZM461.69-23Q459.94-23 459.04-21.75 458.14-20.5 458.14-17.8L458.14-17.8Q458.14-15.25 459.04-13.88 459.94-12.5 461.64-12.5L461.64-12.5Q463.39-12.5 464.24-13.73 465.09-14.95 465.09-17.85L465.09-17.85Q465.09-20.55 464.27-21.78 463.44-23 461.69-23L461.69-23ZM508.19 0L501.34 0 495.24-13.95 494.64-13.95 492.19-13.95 492.19 0 485.84 0 485.84-34.55 493.99-34.55Q506.49-34.55 506.49-24.4L506.49-24.4Q506.49-21.25 505.09-18.82 503.69-16.4 500.89-15.15L500.89-15.15 508.19 0ZM494.29-18.55Q497.24-18.55 498.56-19.95 499.89-21.35 499.89-24.4L499.89-24.4Q499.89-27.25 498.51-28.58 497.14-29.9 493.99-29.9L493.99-29.9 492.19-29.9 492.19-18.55 494.29-18.55ZM530.09-13.85Q530.09-13.4 529.94-11.3L529.94-11.3 516.29-11.3Q516.49-7.2 517.71-5.58 518.94-3.95 521.19-3.95L521.19-3.95Q522.74-3.95 523.99-4.48 525.24-5 526.69-6.15L526.69-6.15 529.24-2.65Q525.74 0.75 520.84 0.75L520.84 0.75Q515.64 0.75 512.86-2.85 510.09-6.45 510.09-13L510.09-13Q510.09-19.55 512.74-23.35 515.39-27.15 520.24-27.15L520.24-27.15Q524.89-27.15 527.49-23.78 530.09-20.4 530.09-13.85L530.09-13.85ZM524.09-15.3L524.09-15.65Q524.09-19.4 523.19-21.13 522.29-22.85 520.29-22.85L520.29-22.85Q518.44-22.85 517.46-21.18 516.49-19.5 516.29-15.3L516.29-15.3 524.09-15.3ZM552.33-29.85L553.88-25.1Q552.83-24.6 551.36-24.4 549.88-24.2 547.68-24.2L547.68-24.2Q549.78-23.2 550.81-21.53 551.83-19.85 551.83-17.4L551.83-17.4Q551.83-13.4 549.38-10.95 546.93-8.5 542.73-8.5L542.73-8.5Q541.48-8.5 540.18-8.9L540.18-8.9Q539.28-8.15 539.28-6.85L539.28-6.85Q539.28-5.85 539.83-5.35 540.38-4.85 541.88-4.85L541.88-4.85 544.68-4.85Q548.68-4.85 551.03-2.78 553.38-0.7 553.38 2.5L553.38 2.5Q553.38 6.3 550.46 8.58 547.53 10.85 542.13 10.85L542.13 10.85Q536.43 10.85 534.16 8.75 531.88 6.65 531.88 2.6L531.88 2.6 537.33 2.6Q537.33 4.75 538.33 5.65 539.33 6.55 542.18 6.55L542.18 6.55Q544.93 6.55 546.08 5.6 547.23 4.65 547.23 2.9L547.23 2.9Q547.23 1.2 546.28 0.4 545.33-0.4 543.33-0.4L543.33-0.4 541.43-0.4Q537.63-0.4 535.88-1.75 534.13-3.1 534.13-5.45L534.13-5.45Q534.13-6.8 534.86-8.03 535.58-9.25 536.83-10.2L536.83-10.2Q534.78-11.5 533.83-13.3 532.88-15.1 532.88-17.7L532.88-17.7Q532.88-22.05 535.48-24.58 538.08-27.1 542.48-27.1L542.48-27.1Q545.73-27.1 547.86-27.8 549.98-28.5 552.33-29.85L552.33-29.85ZM542.48-23Q540.73-23 539.83-21.75 538.93-20.5 538.93-17.8L538.93-17.8Q538.93-15.25 539.83-13.88 540.73-12.5 542.43-12.5L542.43-12.5Q544.18-12.5 545.03-13.73 545.88-14.95 545.88-17.85L545.88-17.85Q545.88-20.55 545.06-21.78 544.23-23 542.48-23L542.48-23ZM556.63-26.45L562.78-26.45 562.78 0 556.63 0 556.63-26.45ZM559.68-39.65Q561.33-39.65 562.36-38.6 563.38-37.55 563.38-35.9L563.38-35.9Q563.38-34.3 562.36-33.25 561.33-32.2 559.68-32.2L559.68-32.2Q558.03-32.2 557.01-33.25 555.98-34.3 555.98-35.9L555.98-35.9Q555.98-37.55 557.01-38.6 558.03-39.65 559.68-39.65L559.68-39.65ZM575.83-27.15Q580.53-27.15 583.78-24.05L583.78-24.05 581.43-20.7Q580.03-21.7 578.78-22.2 577.53-22.7 576.23-22.7L576.23-22.7Q574.78-22.7 573.95-21.93 573.13-21.15 573.13-19.8L573.13-19.8Q573.13-18.45 574.05-17.63 574.98-16.8 577.78-15.7L577.78-15.7Q581.23-14.35 582.88-12.5 584.53-10.65 584.53-7.55L584.53-7.55Q584.53-3.7 581.83-1.48 579.13 0.75 574.98 0.75L574.98 0.75Q572.28 0.75 570-0.23 567.73-1.2 566.03-2.95L566.03-2.95 569.03-6.25Q571.83-3.8 574.73-3.8L574.73-3.8Q576.38-3.8 577.33-4.67 578.28-5.55 578.28-7.1L578.28-7.1Q578.28-8.25 577.88-8.97 577.48-9.7 576.48-10.33 575.48-10.95 573.48-11.7L573.48-11.7Q570.03-13.05 568.55-14.85 567.08-16.65 567.08-19.45L567.08-19.45Q567.08-22.8 569.45-24.98 571.83-27.15 575.83-27.15L575.83-27.15ZM599.52-5L601.67-1.2Q599.23 0.75 595.92 0.75L595.92 0.75Q592.48 0.75 590.67-1.23 588.88-3.2 588.88-6.6L588.88-6.6 588.88-22 585.77-22 585.77-26.45 588.88-26.45 588.88-32.3 595.02-33.05 595.02-26.45 600.02-26.45 599.42-22 595.02-22 595.02-6.6Q595.02-4.2 597.07-4.2L597.07-4.2Q597.73-4.2 598.23-4.38 598.73-4.55 599.52-5L599.52-5ZM615.87-27.1Q617.02-27.1 617.92-26.75L617.92-26.75 616.92-20.85Q615.92-21.1 615.07-21.1L615.07-21.1Q613.17-21.1 612.07-19.45 610.97-17.8 610.37-14.55L610.37-14.55 610.37 0 604.22 0 604.22-26.45 609.57-26.45 610.02-21.85Q611.87-27.1 615.87-27.1L615.87-27.1ZM639.42-26.45L632.42 0.1Q631.12 4.9 628.22 7.65 625.32 10.4 620.47 10.85L620.47 10.85 619.77 6.5Q622.92 5.85 624.49 4.42 626.07 3 626.97 0L626.97 0 624.67 0 617.97-26.45 624.22-26.45 628.62-4.1 633.32-26.45 639.42-26.45Z" opacity="1" transform="matrix(1,0,0,1,0,0)" fill="#ffffff" class="slogan-text-1" data-fill-palette-color="secondary" id="text-1"></path></svg></g></svg></g></svg></g></svg></g><g transform="matrix(1,0,0,1,0,0.37305216552761067)"><svg viewBox="0 0 91.413276305264 149.22086621104543" height="149.22086621104543" width="91.413276305264"><g><svg xmlns="http://www.w3.org/2000/svg" xmlns:xlink="http://www.w3.org/1999/xlink" version="1.1" x="0" y="0" viewBox="19.548967701421713 1.282 59.90806145327697 97.7925" enable-background="new 0 0 100 100" xml:space="preserve" height="149.22086621104543" width="91.413276305264" class="icon-icon-0" data-fill-palette-color="accent" id="icon-0"><g fill="#2ecc40" data-fill-palette-color="accent"><path d="M28.792 68.757V50.463c-5.783 2.419-9.243 8.361-9.243 14.409v28.867c-0.02 7.114 9.255 7.114 9.255 0V68.757H28.792z" fill="#ffffff" data-fill-palette-color="accent"></path><path d="M50.899 1.282c-8.032 0-14.546 6.515-14.546 14.547 0 0.085 0.02 0.16 0.023 0.243v19.87h3.261c1.026 6.102 5.638 10.61 11.269 10.61 5.628 0 10.238-4.508 11.264-10.61h3.28V15.856c0-0.008 0.002-0.02 0.002-0.027C65.452 7.797 58.938 1.282 50.899 1.282zM50.906 43.917c-4.101 0-7.577-3.419-8.557-7.975h17.107C58.479 40.499 55.007 43.917 50.906 43.917z" fill="#ffffff" data-fill-palette-color="accent"></path><path d="M64.441 49.316H53.198v6.02h-4.289v-6.02H35.657c-0.997 0-3.039 0.106-3.953 0.277v16.033h0.008v20.821h16.44v3.215h-16.44v9.396h35.582v-9.396H54.047v-3.215h13.247V65.626h2.908v28.113c0 7.114 9.274 7.114 9.255 0V64.872C79.457 57.016 73.637 49.316 64.441 49.316zM51.1 63.345c1.313 0 2.38 1.066 2.38 2.382 0 1.313-1.066 2.38-2.38 2.38-1.316 0-2.382-1.066-2.382-2.38C48.718 64.411 49.784 63.345 51.1 63.345zM51.1 73.972c1.313 0 2.38 1.066 2.38 2.383 0 1.313-1.066 2.38-2.38 2.38-1.316 0-2.382-1.066-2.382-2.38C48.718 75.038 49.784 73.972 51.1 73.972z" fill="#ffffff" data-fill-palette-color="accent"></path><path d="M28.804 13.924h2.91v35.669c0 0-0.797 0.14-1.462 0.34-0.845 0.253-1.448 0.53-1.448 0.53V13.924z" fill="#ffffff" data-fill-palette-color="accent"></path></g></svg></g></svg></g></svg></g><defs></defs></svg><rect width="395.52" height="108.54154901457952" fill="none" stroke="none" visibility="hidden"></rect></g></svg></g></svg>